%
M48
M72
T01C0.02756
T02C0.03200
T03C0.03543
T04C0.07500
%
T01
X51079Y91000
X60921Y91000
X196079Y91000
X205921Y91000
T02
X31000Y36000
X23500Y41000
X31000Y46000
X31000Y181000
X31000Y191000
X218500Y41000
X226000Y36000
X226000Y46000
X221000Y181000
X221000Y191000
T03
X201000Y156000
X201000Y126000
X56000Y126000
X56000Y156000
T04
X103000Y227000
X154000Y227000
M30
