G75*
%MOIN*%
%OFA0B0*%
%FSLAX25Y25*%
%IPPOS*%
%LPD*%
%AMOC8*
5,1,8,0,0,1.08239X$1,22.5*
%
%ADD10C,0.00000*%
%ADD11C,0.11250*%
%ADD12C,0.06500*%
%ADD13R,0.06500X0.06500*%
%ADD14C,0.07400*%
%ADD15R,0.03937X0.04331*%
%ADD16C,0.02000*%
%ADD17C,0.01000*%
D10*
X0001000Y0001000D02*
X0001500Y0251701D01*
X0251421Y0251701D01*
X0250921Y0001000D01*
X0001000Y0001000D01*
D11*
X0103000Y0227000D03*
X0154000Y0227000D03*
D12*
X0196079Y0091000D03*
X0060921Y0091000D03*
D13*
X0051079Y0091000D03*
X0205921Y0091000D03*
D14*
X0201000Y0126000D03*
X0201000Y0156000D03*
X0221000Y0181000D03*
X0221000Y0191000D03*
X0226000Y0046000D03*
X0218500Y0041000D03*
X0226000Y0036000D03*
X0056000Y0126000D03*
X0056000Y0156000D03*
X0031000Y0181000D03*
X0031000Y0191000D03*
X0031000Y0046000D03*
X0023500Y0041000D03*
X0031000Y0036000D03*
D15*
X0031000Y0132654D03*
X0031000Y0139346D03*
X0221000Y0139346D03*
X0221000Y0132654D03*
D16*
X0201000Y0156000D02*
X0201000Y0171000D01*
X0200500Y0171500D01*
X0158500Y0171500D01*
X0103000Y0227000D01*
X0049000Y0173000D01*
X0031000Y0191000D01*
X0049000Y0173000D02*
X0056000Y0166000D01*
X0056000Y0156000D01*
X0201000Y0171000D02*
X0221000Y0191000D01*
D17*
X0221000Y0181000D02*
X0221000Y0139346D01*
X0221000Y0132654D02*
X0221000Y0106000D01*
X0206000Y0091000D01*
X0205921Y0091000D01*
X0206500Y0091000D01*
X0226000Y0071500D01*
X0226000Y0046000D01*
X0218500Y0041000D02*
X0167250Y0092250D01*
X0166000Y0091000D01*
X0060921Y0091000D01*
X0051079Y0091000D02*
X0050500Y0091000D01*
X0031000Y0071500D01*
X0031000Y0046000D01*
X0031000Y0036000D02*
X0216000Y0036000D01*
X0216500Y0035500D01*
X0225500Y0035500D01*
X0226000Y0036000D01*
X0167250Y0092250D02*
X0201000Y0126000D01*
X0051079Y0091000D02*
X0051000Y0091000D01*
X0031000Y0111000D01*
X0031000Y0132654D01*
X0031000Y0139346D02*
X0031000Y0181000D01*
M02*
